<mxfile host="app.diagrams.net" modified="2021-06-07T09:04:13.652Z" agent="5.0 (Windows NT 10.0; Win64; x64) AppleWebKit/537.36 (KHTML, like Gecko) Chrome/91.0.4472.77 Safari/537.36" etag="jT31fR9mw251n_1ZUAvf" version="14.7.6" type="github">
  <diagram id="C5RBs43oDa-KdzZeNtuy" name="Page-1">
    <mxGraphModel dx="751" dy="1104" grid="1" gridSize="10" guides="1" tooltips="1" connect="1" arrows="1" fold="1" page="1" pageScale="1" pageWidth="827" pageHeight="1169" math="0" shadow="0">
      <root>
        <mxCell id="WIyWlLk6GJQsqaUBKTNV-0" />
        <mxCell id="WIyWlLk6GJQsqaUBKTNV-1" parent="WIyWlLk6GJQsqaUBKTNV-0" />
        <mxCell id="K8ocvImRnjex33F1LI7K-68" value="" style="rounded=0;whiteSpace=wrap;html=1;fillColor=#dae8fc;strokeColor=#6c8ebf;" vertex="1" parent="WIyWlLk6GJQsqaUBKTNV-1">
          <mxGeometry x="329" y="500" width="160" height="380" as="geometry" />
        </mxCell>
        <mxCell id="K8ocvImRnjex33F1LI7K-52" value="" style="rounded=0;whiteSpace=wrap;html=1;fillColor=#dae8fc;strokeColor=#6c8ebf;" vertex="1" parent="WIyWlLk6GJQsqaUBKTNV-1">
          <mxGeometry x="590" y="420" width="160" height="240" as="geometry" />
        </mxCell>
        <mxCell id="K8ocvImRnjex33F1LI7K-53" value="DB Query 모듈" style="text;html=1;align=center;verticalAlign=middle;resizable=0;points=[];autosize=1;strokeColor=none;" vertex="1" parent="WIyWlLk6GJQsqaUBKTNV-1">
          <mxGeometry x="570" y="400" width="100" height="20" as="geometry" />
        </mxCell>
        <mxCell id="K8ocvImRnjex33F1LI7K-50" value="" style="rounded=0;whiteSpace=wrap;html=1;fillColor=#dae8fc;strokeColor=#6c8ebf;" vertex="1" parent="WIyWlLk6GJQsqaUBKTNV-1">
          <mxGeometry x="70" y="420" width="160" height="240" as="geometry" />
        </mxCell>
        <mxCell id="K8ocvImRnjex33F1LI7K-8" value="" style="edgeStyle=orthogonalEdgeStyle;rounded=0;orthogonalLoop=1;jettySize=auto;html=1;entryX=1;entryY=0.5;entryDx=0;entryDy=0;" edge="1" parent="WIyWlLk6GJQsqaUBKTNV-1" source="WIyWlLk6GJQsqaUBKTNV-6" target="K8ocvImRnjex33F1LI7K-31">
          <mxGeometry relative="1" as="geometry">
            <mxPoint x="234" y="330" as="targetPoint" />
          </mxGeometry>
        </mxCell>
        <mxCell id="K8ocvImRnjex33F1LI7K-12" value="" style="edgeStyle=orthogonalEdgeStyle;rounded=0;orthogonalLoop=1;jettySize=auto;html=1;entryX=0;entryY=0.5;entryDx=0;entryDy=0;" edge="1" parent="WIyWlLk6GJQsqaUBKTNV-1" source="WIyWlLk6GJQsqaUBKTNV-6" target="K8ocvImRnjex33F1LI7K-32">
          <mxGeometry relative="1" as="geometry">
            <mxPoint x="594" y="330" as="targetPoint" />
          </mxGeometry>
        </mxCell>
        <mxCell id="K8ocvImRnjex33F1LI7K-64" value="" style="edgeStyle=orthogonalEdgeStyle;rounded=0;orthogonalLoop=1;jettySize=auto;html=1;" edge="1" parent="WIyWlLk6GJQsqaUBKTNV-1" source="WIyWlLk6GJQsqaUBKTNV-6" target="K8ocvImRnjex33F1LI7K-63">
          <mxGeometry relative="1" as="geometry" />
        </mxCell>
        <mxCell id="WIyWlLk6GJQsqaUBKTNV-6" value="Application&lt;br&gt;Button Click" style="rhombus;whiteSpace=wrap;html=1;shadow=0;fontFamily=Helvetica;fontSize=12;align=center;strokeWidth=1;spacing=6;spacingTop=-4;" parent="WIyWlLk6GJQsqaUBKTNV-1" vertex="1">
          <mxGeometry x="358" y="290" width="100" height="80" as="geometry" />
        </mxCell>
        <mxCell id="K8ocvImRnjex33F1LI7K-28" value="" style="edgeStyle=orthogonalEdgeStyle;rounded=0;orthogonalLoop=1;jettySize=auto;html=1;" edge="1" parent="WIyWlLk6GJQsqaUBKTNV-1" source="K8ocvImRnjex33F1LI7K-0" target="K8ocvImRnjex33F1LI7K-25">
          <mxGeometry relative="1" as="geometry" />
        </mxCell>
        <mxCell id="K8ocvImRnjex33F1LI7K-0" value="Ac tor" style="shape=umlActor;verticalLabelPosition=bottom;verticalAlign=top;html=1;outlineConnect=0;" vertex="1" parent="WIyWlLk6GJQsqaUBKTNV-1">
          <mxGeometry x="393" width="30" height="60" as="geometry" />
        </mxCell>
        <mxCell id="K8ocvImRnjex33F1LI7K-9" value="주문 조회 Click" style="text;html=1;align=center;verticalAlign=middle;resizable=0;points=[];autosize=1;strokeColor=none;" vertex="1" parent="WIyWlLk6GJQsqaUBKTNV-1">
          <mxGeometry x="249" y="310" width="100" height="20" as="geometry" />
        </mxCell>
        <mxCell id="K8ocvImRnjex33F1LI7K-13" value="찜 조회 Click" style="text;html=1;align=center;verticalAlign=middle;resizable=0;points=[];autosize=1;strokeColor=none;" vertex="1" parent="WIyWlLk6GJQsqaUBKTNV-1">
          <mxGeometry x="484" y="310" width="80" height="20" as="geometry" />
        </mxCell>
        <mxCell id="K8ocvImRnjex33F1LI7K-19" value="ID, Passwd&lt;br&gt;입력" style="shape=parallelogram;perimeter=parallelogramPerimeter;whiteSpace=wrap;html=1;fixedSize=1;" vertex="1" parent="WIyWlLk6GJQsqaUBKTNV-1">
          <mxGeometry x="349" y="100" width="120" height="60" as="geometry" />
        </mxCell>
        <mxCell id="K8ocvImRnjex33F1LI7K-23" value="" style="edgeStyle=orthogonalEdgeStyle;rounded=0;orthogonalLoop=1;jettySize=auto;html=1;" edge="1" parent="WIyWlLk6GJQsqaUBKTNV-1" target="WIyWlLk6GJQsqaUBKTNV-6">
          <mxGeometry relative="1" as="geometry">
            <mxPoint x="408" y="250" as="sourcePoint" />
          </mxGeometry>
        </mxCell>
        <mxCell id="K8ocvImRnjex33F1LI7K-25" value="Login 성공?" style="rhombus;whiteSpace=wrap;html=1;" vertex="1" parent="WIyWlLk6GJQsqaUBKTNV-1">
          <mxGeometry x="342" y="180" width="132" height="70" as="geometry" />
        </mxCell>
        <mxCell id="K8ocvImRnjex33F1LI7K-27" value="Yes" style="text;html=1;align=center;verticalAlign=middle;resizable=0;points=[];autosize=1;strokeColor=none;" vertex="1" parent="WIyWlLk6GJQsqaUBKTNV-1">
          <mxGeometry x="400" y="260" width="40" height="20" as="geometry" />
        </mxCell>
        <mxCell id="K8ocvImRnjex33F1LI7K-29" value="" style="endArrow=classic;html=1;exitX=1;exitY=0.5;exitDx=0;exitDy=0;entryX=1;entryY=0.5;entryDx=0;entryDy=0;" edge="1" parent="WIyWlLk6GJQsqaUBKTNV-1" source="K8ocvImRnjex33F1LI7K-25" target="K8ocvImRnjex33F1LI7K-19">
          <mxGeometry width="50" height="50" relative="1" as="geometry">
            <mxPoint x="360" y="440" as="sourcePoint" />
            <mxPoint x="460" y="140" as="targetPoint" />
            <Array as="points">
              <mxPoint x="510" y="215" />
              <mxPoint x="510" y="130" />
            </Array>
          </mxGeometry>
        </mxCell>
        <mxCell id="K8ocvImRnjex33F1LI7K-30" value="No" style="text;html=1;align=center;verticalAlign=middle;resizable=0;points=[];autosize=1;strokeColor=none;" vertex="1" parent="WIyWlLk6GJQsqaUBKTNV-1">
          <mxGeometry x="510" y="160" width="30" height="20" as="geometry" />
        </mxCell>
        <mxCell id="K8ocvImRnjex33F1LI7K-35" value="" style="edgeStyle=orthogonalEdgeStyle;rounded=0;orthogonalLoop=1;jettySize=auto;html=1;" edge="1" parent="WIyWlLk6GJQsqaUBKTNV-1" source="K8ocvImRnjex33F1LI7K-31" target="K8ocvImRnjex33F1LI7K-34">
          <mxGeometry relative="1" as="geometry" />
        </mxCell>
        <mxCell id="K8ocvImRnjex33F1LI7K-31" value="현재 Login 한 ID 전송" style="rounded=0;whiteSpace=wrap;html=1;" vertex="1" parent="WIyWlLk6GJQsqaUBKTNV-1">
          <mxGeometry x="70" y="300" width="160" height="60" as="geometry" />
        </mxCell>
        <mxCell id="K8ocvImRnjex33F1LI7K-37" value="" style="edgeStyle=orthogonalEdgeStyle;rounded=0;orthogonalLoop=1;jettySize=auto;html=1;" edge="1" parent="WIyWlLk6GJQsqaUBKTNV-1" source="K8ocvImRnjex33F1LI7K-32" target="K8ocvImRnjex33F1LI7K-36">
          <mxGeometry relative="1" as="geometry" />
        </mxCell>
        <mxCell id="K8ocvImRnjex33F1LI7K-32" value="&lt;span&gt;현재 Login 한 ID 전송&lt;/span&gt;&lt;span&gt;&lt;br&gt;&lt;/span&gt;" style="rounded=0;whiteSpace=wrap;html=1;" vertex="1" parent="WIyWlLk6GJQsqaUBKTNV-1">
          <mxGeometry x="590" y="300" width="160" height="60" as="geometry" />
        </mxCell>
        <mxCell id="K8ocvImRnjex33F1LI7K-39" value="" style="edgeStyle=orthogonalEdgeStyle;rounded=0;orthogonalLoop=1;jettySize=auto;html=1;" edge="1" parent="WIyWlLk6GJQsqaUBKTNV-1" source="K8ocvImRnjex33F1LI7K-34" target="K8ocvImRnjex33F1LI7K-38">
          <mxGeometry relative="1" as="geometry" />
        </mxCell>
        <mxCell id="K8ocvImRnjex33F1LI7K-34" value="주문 Table 에서&lt;br&gt;입력된 ID 로&lt;br&gt;SELECT 수행" style="whiteSpace=wrap;html=1;rounded=0;" vertex="1" parent="WIyWlLk6GJQsqaUBKTNV-1">
          <mxGeometry x="90" y="440" width="120" height="60" as="geometry" />
        </mxCell>
        <mxCell id="K8ocvImRnjex33F1LI7K-41" value="" style="edgeStyle=orthogonalEdgeStyle;rounded=0;orthogonalLoop=1;jettySize=auto;html=1;" edge="1" parent="WIyWlLk6GJQsqaUBKTNV-1" source="K8ocvImRnjex33F1LI7K-36" target="K8ocvImRnjex33F1LI7K-40">
          <mxGeometry relative="1" as="geometry" />
        </mxCell>
        <mxCell id="K8ocvImRnjex33F1LI7K-36" value="&lt;span&gt;찜 Table 에서&lt;/span&gt;&lt;br&gt;&lt;span&gt;입력된 ID 로&lt;/span&gt;&lt;br&gt;&lt;span&gt;SELECT 수행&lt;/span&gt;" style="whiteSpace=wrap;html=1;rounded=0;" vertex="1" parent="WIyWlLk6GJQsqaUBKTNV-1">
          <mxGeometry x="610" y="440" width="120" height="60" as="geometry" />
        </mxCell>
        <mxCell id="K8ocvImRnjex33F1LI7K-49" value="" style="edgeStyle=orthogonalEdgeStyle;rounded=0;orthogonalLoop=1;jettySize=auto;html=1;" edge="1" parent="WIyWlLk6GJQsqaUBKTNV-1" source="K8ocvImRnjex33F1LI7K-38" target="K8ocvImRnjex33F1LI7K-48">
          <mxGeometry relative="1" as="geometry" />
        </mxCell>
        <mxCell id="K8ocvImRnjex33F1LI7K-38" value="결과 아이템 ID 및&lt;br&gt;기타 정보들 전송&lt;br&gt;( HttpResponse )" style="whiteSpace=wrap;html=1;rounded=0;" vertex="1" parent="WIyWlLk6GJQsqaUBKTNV-1">
          <mxGeometry x="90" y="580" width="120" height="60" as="geometry" />
        </mxCell>
        <mxCell id="K8ocvImRnjex33F1LI7K-47" value="" style="edgeStyle=orthogonalEdgeStyle;rounded=0;orthogonalLoop=1;jettySize=auto;html=1;" edge="1" parent="WIyWlLk6GJQsqaUBKTNV-1" source="K8ocvImRnjex33F1LI7K-40" target="K8ocvImRnjex33F1LI7K-46">
          <mxGeometry relative="1" as="geometry" />
        </mxCell>
        <mxCell id="K8ocvImRnjex33F1LI7K-40" value="&lt;span&gt;결과 아이템 ID 및&lt;/span&gt;&lt;br&gt;&lt;span&gt;기타 정보들 전송&lt;/span&gt;&lt;br&gt;&lt;span&gt;( HttpResponse )&lt;/span&gt;" style="whiteSpace=wrap;html=1;rounded=0;" vertex="1" parent="WIyWlLk6GJQsqaUBKTNV-1">
          <mxGeometry x="610" y="580" width="120" height="60" as="geometry" />
        </mxCell>
        <mxCell id="K8ocvImRnjex33F1LI7K-57" value="" style="edgeStyle=orthogonalEdgeStyle;rounded=0;orthogonalLoop=1;jettySize=auto;html=1;" edge="1" parent="WIyWlLk6GJQsqaUBKTNV-1" source="K8ocvImRnjex33F1LI7K-46" target="K8ocvImRnjex33F1LI7K-56">
          <mxGeometry relative="1" as="geometry" />
        </mxCell>
        <mxCell id="K8ocvImRnjex33F1LI7K-46" value="&lt;span&gt;응답받은 Item ID&lt;/span&gt;&lt;br&gt;&lt;span&gt;리스트 UI 작성&lt;/span&gt;" style="whiteSpace=wrap;html=1;rounded=0;" vertex="1" parent="WIyWlLk6GJQsqaUBKTNV-1">
          <mxGeometry x="610" y="720" width="120" height="60" as="geometry" />
        </mxCell>
        <mxCell id="K8ocvImRnjex33F1LI7K-55" value="" style="edgeStyle=orthogonalEdgeStyle;rounded=0;orthogonalLoop=1;jettySize=auto;html=1;" edge="1" parent="WIyWlLk6GJQsqaUBKTNV-1" source="K8ocvImRnjex33F1LI7K-48" target="K8ocvImRnjex33F1LI7K-54">
          <mxGeometry relative="1" as="geometry" />
        </mxCell>
        <mxCell id="K8ocvImRnjex33F1LI7K-48" value="응답받은 Item ID&lt;br&gt;리스트 UI 작성" style="whiteSpace=wrap;html=1;rounded=0;" vertex="1" parent="WIyWlLk6GJQsqaUBKTNV-1">
          <mxGeometry x="90" y="720" width="120" height="60" as="geometry" />
        </mxCell>
        <mxCell id="K8ocvImRnjex33F1LI7K-51" value="DB Query 모듈" style="text;html=1;align=center;verticalAlign=middle;resizable=0;points=[];autosize=1;strokeColor=none;" vertex="1" parent="WIyWlLk6GJQsqaUBKTNV-1">
          <mxGeometry x="50" y="400" width="100" height="20" as="geometry" />
        </mxCell>
        <mxCell id="K8ocvImRnjex33F1LI7K-54" value="종료" style="ellipse;whiteSpace=wrap;html=1;rounded=0;" vertex="1" parent="WIyWlLk6GJQsqaUBKTNV-1">
          <mxGeometry x="90" y="860" width="120" height="60" as="geometry" />
        </mxCell>
        <mxCell id="K8ocvImRnjex33F1LI7K-56" value="종료" style="ellipse;whiteSpace=wrap;html=1;rounded=0;" vertex="1" parent="WIyWlLk6GJQsqaUBKTNV-1">
          <mxGeometry x="610" y="860" width="120" height="60" as="geometry" />
        </mxCell>
        <mxCell id="K8ocvImRnjex33F1LI7K-60" value="검색 Click" style="text;html=1;align=center;verticalAlign=middle;resizable=0;points=[];autosize=1;strokeColor=none;" vertex="1" parent="WIyWlLk6GJQsqaUBKTNV-1">
          <mxGeometry x="404" y="380" width="70" height="20" as="geometry" />
        </mxCell>
        <mxCell id="K8ocvImRnjex33F1LI7K-66" value="" style="edgeStyle=orthogonalEdgeStyle;rounded=0;orthogonalLoop=1;jettySize=auto;html=1;" edge="1" parent="WIyWlLk6GJQsqaUBKTNV-1" source="K8ocvImRnjex33F1LI7K-63" target="K8ocvImRnjex33F1LI7K-65">
          <mxGeometry relative="1" as="geometry" />
        </mxCell>
        <mxCell id="K8ocvImRnjex33F1LI7K-63" value="전송할 사진&lt;br&gt;입력" style="shape=parallelogram;perimeter=parallelogramPerimeter;whiteSpace=wrap;html=1;fixedSize=1;shadow=0;strokeWidth=1;spacing=6;spacingTop=-4;" vertex="1" parent="WIyWlLk6GJQsqaUBKTNV-1">
          <mxGeometry x="348" y="410" width="120" height="60" as="geometry" />
        </mxCell>
        <mxCell id="K8ocvImRnjex33F1LI7K-73" value="" style="edgeStyle=orthogonalEdgeStyle;rounded=0;orthogonalLoop=1;jettySize=auto;html=1;" edge="1" parent="WIyWlLk6GJQsqaUBKTNV-1" source="K8ocvImRnjex33F1LI7K-65" target="K8ocvImRnjex33F1LI7K-72">
          <mxGeometry relative="1" as="geometry" />
        </mxCell>
        <mxCell id="K8ocvImRnjex33F1LI7K-65" value="의상 추출 수행&lt;br&gt;( 의상 추출 모듈 )" style="whiteSpace=wrap;html=1;shadow=0;strokeWidth=1;spacing=6;spacingTop=-4;" vertex="1" parent="WIyWlLk6GJQsqaUBKTNV-1">
          <mxGeometry x="348" y="515" width="120" height="55" as="geometry" />
        </mxCell>
        <mxCell id="K8ocvImRnjex33F1LI7K-67" value="전송" style="text;html=1;align=center;verticalAlign=middle;resizable=0;points=[];autosize=1;strokeColor=none;" vertex="1" parent="WIyWlLk6GJQsqaUBKTNV-1">
          <mxGeometry x="408" y="480" width="40" height="20" as="geometry" />
        </mxCell>
        <mxCell id="K8ocvImRnjex33F1LI7K-69" value="Server&amp;nbsp;" style="text;html=1;align=center;verticalAlign=middle;resizable=0;points=[];autosize=1;strokeColor=none;" vertex="1" parent="WIyWlLk6GJQsqaUBKTNV-1">
          <mxGeometry x="329" y="480" width="50" height="20" as="geometry" />
        </mxCell>
        <mxCell id="K8ocvImRnjex33F1LI7K-74" style="edgeStyle=orthogonalEdgeStyle;rounded=0;orthogonalLoop=1;jettySize=auto;html=1;exitX=0;exitY=0.5;exitDx=0;exitDy=0;entryX=0;entryY=0.5;entryDx=0;entryDy=0;" edge="1" parent="WIyWlLk6GJQsqaUBKTNV-1" source="K8ocvImRnjex33F1LI7K-72" target="K8ocvImRnjex33F1LI7K-63">
          <mxGeometry relative="1" as="geometry">
            <Array as="points">
              <mxPoint x="280" y="640" />
              <mxPoint x="280" y="440" />
            </Array>
          </mxGeometry>
        </mxCell>
        <mxCell id="K8ocvImRnjex33F1LI7K-77" value="" style="edgeStyle=orthogonalEdgeStyle;rounded=0;orthogonalLoop=1;jettySize=auto;html=1;" edge="1" parent="WIyWlLk6GJQsqaUBKTNV-1" source="K8ocvImRnjex33F1LI7K-72" target="K8ocvImRnjex33F1LI7K-76">
          <mxGeometry relative="1" as="geometry" />
        </mxCell>
        <mxCell id="K8ocvImRnjex33F1LI7K-72" value="의상인가?" style="rhombus;whiteSpace=wrap;html=1;shadow=0;strokeWidth=1;spacing=6;spacingTop=-4;" vertex="1" parent="WIyWlLk6GJQsqaUBKTNV-1">
          <mxGeometry x="368" y="600" width="80" height="80" as="geometry" />
        </mxCell>
        <mxCell id="K8ocvImRnjex33F1LI7K-75" value="No" style="text;html=1;align=center;verticalAlign=middle;resizable=0;points=[];autosize=1;strokeColor=none;" vertex="1" parent="WIyWlLk6GJQsqaUBKTNV-1">
          <mxGeometry x="329" y="620" width="30" height="20" as="geometry" />
        </mxCell>
        <mxCell id="K8ocvImRnjex33F1LI7K-80" value="" style="edgeStyle=orthogonalEdgeStyle;rounded=0;orthogonalLoop=1;jettySize=auto;html=1;" edge="1" parent="WIyWlLk6GJQsqaUBKTNV-1" source="K8ocvImRnjex33F1LI7K-76" target="K8ocvImRnjex33F1LI7K-79">
          <mxGeometry relative="1" as="geometry" />
        </mxCell>
        <mxCell id="K8ocvImRnjex33F1LI7K-76" value="의상 검색 수행&lt;br&gt;( 의상 검색 모듈 )" style="whiteSpace=wrap;html=1;shadow=0;strokeWidth=1;spacing=6;spacingTop=-4;" vertex="1" parent="WIyWlLk6GJQsqaUBKTNV-1">
          <mxGeometry x="348" y="710" width="120" height="60" as="geometry" />
        </mxCell>
        <mxCell id="K8ocvImRnjex33F1LI7K-78" value="Yes" style="text;html=1;align=center;verticalAlign=middle;resizable=0;points=[];autosize=1;strokeColor=none;" vertex="1" parent="WIyWlLk6GJQsqaUBKTNV-1">
          <mxGeometry x="408" y="680" width="40" height="20" as="geometry" />
        </mxCell>
        <mxCell id="K8ocvImRnjex33F1LI7K-82" value="" style="edgeStyle=orthogonalEdgeStyle;rounded=0;orthogonalLoop=1;jettySize=auto;html=1;" edge="1" parent="WIyWlLk6GJQsqaUBKTNV-1" source="K8ocvImRnjex33F1LI7K-79" target="K8ocvImRnjex33F1LI7K-81">
          <mxGeometry relative="1" as="geometry" />
        </mxCell>
        <mxCell id="K8ocvImRnjex33F1LI7K-79" value="결과 아이템 ID 및&lt;br&gt;기타 정보들 전송&lt;br&gt;( HttpResponse )" style="whiteSpace=wrap;html=1;shadow=0;strokeWidth=1;spacing=6;spacingTop=-4;" vertex="1" parent="WIyWlLk6GJQsqaUBKTNV-1">
          <mxGeometry x="348" y="800" width="120" height="60" as="geometry" />
        </mxCell>
        <mxCell id="K8ocvImRnjex33F1LI7K-84" value="" style="edgeStyle=orthogonalEdgeStyle;rounded=0;orthogonalLoop=1;jettySize=auto;html=1;" edge="1" parent="WIyWlLk6GJQsqaUBKTNV-1" source="K8ocvImRnjex33F1LI7K-81" target="K8ocvImRnjex33F1LI7K-83">
          <mxGeometry relative="1" as="geometry" />
        </mxCell>
        <mxCell id="K8ocvImRnjex33F1LI7K-81" value="응답받은 Item ID&lt;br&gt;결과 페이지 작성" style="whiteSpace=wrap;html=1;shadow=0;strokeWidth=1;spacing=6;spacingTop=-4;" vertex="1" parent="WIyWlLk6GJQsqaUBKTNV-1">
          <mxGeometry x="348" y="900" width="120" height="60" as="geometry" />
        </mxCell>
        <mxCell id="K8ocvImRnjex33F1LI7K-83" value="종료" style="ellipse;whiteSpace=wrap;html=1;shadow=0;strokeWidth=1;spacing=6;spacingTop=-4;" vertex="1" parent="WIyWlLk6GJQsqaUBKTNV-1">
          <mxGeometry x="348" y="990" width="120" height="60" as="geometry" />
        </mxCell>
      </root>
    </mxGraphModel>
  </diagram>
</mxfile>
